<svg xmlns="http://www.w3.org/2000/svg" width="22.243" height="21.323" viewBox="0 0 22.243 21.323">
  <g id="Icon_feather-shopping-cart" data-name="Icon feather-shopping-cart" transform="translate(1 1)">
    <path id="Path_2" data-name="Path 2" d="M13.84,30.92a.92.92,0,1,1-.92-.92A.92.92,0,0,1,13.84,30.92Z" transform="translate(-5.559 -12.518)" fill="none" stroke="#000" stroke-linecap="round" stroke-linejoin="round" stroke-width="2"/>
    <path id="Path_3" data-name="Path 3" d="M30.34,30.92a.92.92,0,1,1-.92-.92A.92.92,0,0,1,30.34,30.92Z" transform="translate(-11.938 -12.518)" fill="none" stroke="#000" stroke-linecap="round" stroke-linejoin="round" stroke-width="2"/>
    <path id="Path_4" data-name="Path 4" d="M1.5,1.5H5.18L7.646,13.82A1.84,1.84,0,0,0,9.487,15.3H18.43a1.84,1.84,0,0,0,1.84-1.481L21.743,6.1H6.1" transform="translate(-1.5 -1.5)" fill="none" stroke="#000" stroke-linecap="round" stroke-linejoin="round" stroke-width="2"/>
  </g>
</svg>
