<svg xmlns="http://www.w3.org/2000/svg" width="25.539" height="25.536" viewBox="0 0 25.539 25.536">
  <g id="instagram" transform="translate(0.013 0.013)">
    <path id="Path_897" data-name="Path 897" d="M21.985,16.7a6.585,6.585,0,1,0,6.585,6.585A6.585,6.585,0,0,0,21.985,16.7Zm0,10.8A4.219,4.219,0,1,1,26.2,23.285,4.219,4.219,0,0,1,21.985,27.5Z" transform="translate(-9.226 -10.578)" fill="#fff"/>
    <circle id="Ellipse_47" data-name="Ellipse 47" cx="1.492" cy="1.492" r="1.492" transform="translate(18.11 4.476)" fill="#fff"/>
    <path id="Path_898" data-name="Path 898" d="M26.86,6.909A7.327,7.327,0,0,0,21.46,4.8H10.86A7.048,7.048,0,0,0,3.4,12.26V22.807a7.4,7.4,0,0,0,2.161,5.505,7.508,7.508,0,0,0,5.351,2.007h10.5a7.6,7.6,0,0,0,5.4-2.007,7.366,7.366,0,0,0,2.109-5.454V12.26A7.375,7.375,0,0,0,26.86,6.909Zm-.206,15.949a5.027,5.027,0,0,1-1.492,3.756,5.318,5.318,0,0,1-3.756,1.338h-10.5A5.318,5.318,0,0,1,7.15,26.614a5.172,5.172,0,0,1-1.389-3.807V12.26A5.129,5.129,0,0,1,7.156,8.5a5.232,5.232,0,0,1,3.756-1.338h10.6a5.129,5.129,0,0,1,3.756,1.389,5.309,5.309,0,0,1,1.389,3.7v10.6Z" transform="translate(-3.4 -4.8)" fill="#fff"/>
  </g>
</svg>
