<svg xmlns="http://www.w3.org/2000/svg" width="35.508" height="24.855" viewBox="0 0 35.508 24.855">
  <path id="youtube" d="M34.765,80.681a4.446,4.446,0,0,0-3.139-3.139C28.857,76.8,17.754,76.8,17.754,76.8s-11.1,0-13.873.742A4.447,4.447,0,0,0,.742,80.681C0,83.45,0,89.228,0,89.228S0,95,.742,97.774a4.447,4.447,0,0,0,3.139,3.139c2.769.742,13.873.742,13.873.742s11.1,0,13.873-.742a4.447,4.447,0,0,0,3.139-3.139c.742-2.769.742-8.546.742-8.546s0-5.778-.742-8.547ZM14.2,94.554V83.9l9.225,5.326Z" transform="translate(0 -76.8)" fill="#fff"/>
</svg>
